<svg xmlns="http://www.w3.org/2000/svg" width="580" height="300" viewBox="0 0 580 300" role="img" aria-labelledby="title desc">
  <title id="title">Aura Work</title><desc id="desc">Secure local-first multi-provider desktop AI agent platform.</desc>
  <defs>
    <linearGradient id="bg" x1="0" y1="0" x2="1" y2="1"><stop stop-color="#11102A"/><stop offset=".62" stop-color="#0B1020"/><stop offset="1" stop-color="#07131A"/></linearGradient>
    <radialGradient id="halo" cx=".76" cy=".38" r=".55"><stop stop-color="#8B5CF6" stop-opacity=".34"/><stop offset="1" stop-color="#8B5CF6" stop-opacity="0"/></radialGradient>
    <filter id="glow" x="-80%" y="-80%" width="260%" height="260%"><feGaussianBlur stdDeviation="4" result="b"/><feMerge><feMergeNode in="b"/><feMergeNode in="SourceGraphic"/></feMerge></filter>
  </defs>
  <rect width="580" height="300" rx="22" fill="url(#bg)"/>
  <rect x="1" y="1" width="578" height="298" rx="21" fill="none" stroke="#40355D"/>
  <rect width="580" height="300" rx="22" fill="url(#halo)"/>
  <text x="28" y="38" fill="#A78BFA" font-family="ui-monospace, SFMono-Regular, Menlo, Consolas, monospace" font-size="12" letter-spacing="2">PRIMARY SYSTEM / 01</text>
  <circle cx="536" cy="34" r="5" fill="#22D3EE" filter="url(#glow)"><animate attributeName="opacity" values=".3;1;.3" dur="1.7s" repeatCount="indefinite"/></circle>
  <text x="28" y="91" fill="#F8FAFC" font-family="Arial, Helvetica, sans-serif" font-size="38" font-weight="800">Aura Work</text>
  <text x="28" y="120" fill="#C4B5FD" font-family="Arial, Helvetica, sans-serif" font-size="16">Secure desktop AI agent infrastructure</text>
  <text x="28" y="159" fill="#94A3B8" font-family="Arial, Helvetica, sans-serif" font-size="14">Local-first · Multi-provider · Permission-gated</text>
  <text x="28" y="183" fill="#94A3B8" font-family="Arial, Helvetica, sans-serif" font-size="14">Open source · Arabic/English · Developer tooling</text>

  <g transform="translate(390 88)">
    <circle cx="62" cy="62" r="58" fill="#0B1020" stroke="#8B5CF6" stroke-width="2"/>
    <circle cx="62" cy="62" r="42" fill="none" stroke="#8B5CF6" stroke-opacity=".25"/>
    <circle cx="62" cy="62" r="13" fill="none" stroke="#22D3EE" stroke-width="3"/>
    <circle cx="62" cy="62" r="4" fill="#22D3EE" filter="url(#glow)"/>
    <path d="M62 20v22M62 82v22M20 62h22M82 62h22M32 32l16 16M76 76l16 16M92 32L76 48M48 76L32 92" stroke="#A78BFA" stroke-width="2"/>
    <circle cx="62" cy="20" r="4" fill="#8B5CF6"/><circle cx="104" cy="62" r="4" fill="#22D3EE"/>
    <circle cx="62" cy="104" r="4" fill="#8B5CF6"/><circle cx="20" cy="62" r="4" fill="#22D3EE"/>
  </g>

  <g transform="translate(28 230)">
    <rect width="126" height="34" rx="17" fill="#17152D" stroke="#4C3B72"/>
    <text x="63" y="22" text-anchor="middle" fill="#C4B5FD" font-family="ui-monospace, SFMono-Regular, Menlo, Consolas, monospace" font-size="11">OPEN SOURCE</text>
    <rect x="138" width="112" height="34" rx="17" fill="#0C1D25" stroke="#164E63"/>
    <text x="194" y="22" text-anchor="middle" fill="#67E8F9" font-family="ui-monospace, SFMono-Regular, Menlo, Consolas, monospace" font-size="11">ACTIVE ALPHA</text>
  </g>
  <text x="548" y="266" text-anchor="end" fill="#64748B" font-family="ui-monospace, SFMono-Regular, Menlo, Consolas, monospace" font-size="11">OPEN REPOSITORY ↗</text>
</svg>