<svg xmlns="http://www.w3.org/2000/svg" width="580" height="300" viewBox="0 0 580 300" role="img" aria-labelledby="title desc">
  <title id="title">Aura Work</title><desc id="desc">Secure local-first multi-provider desktop AI agent platform.</desc>
  <defs><linearGradient id="bg" x1="0" y1="0" x2="1" y2="1"><stop stop-color="#16112F"/><stop offset=".62" stop-color="#091426"/><stop offset="1" stop-color="#06101B"/></linearGradient><radialGradient id="glow" cx=".3" cy=".32" r=".8"><stop offset="0" stop-color="#8B5CF6" stop-opacity=".28"/><stop offset="1" stop-color="#8B5CF6" stop-opacity="0"/></radialGradient><radialGradient id="glow2" cx=".78" cy=".72" r=".75"><stop offset="0" stop-color="#22D3EE" stop-opacity=".18"/><stop offset="1" stop-color="#22D3EE" stop-opacity="0"/></radialGradient><linearGradient id="edge" x1="0" y1="0" x2="1" y2="1"><stop stop-color="#8B5CF6"/><stop offset="1" stop-color="#22D3EE"/></linearGradient><style>.t{font-family:Inter,Segoe UI,Arial,sans-serif}.m{font-family:"JetBrains Mono",monospace}.bar{animation:bar 4.8s ease-in-out infinite}.blink{animation:blink 2.6s ease-in-out infinite}@keyframes bar{0%,100%{opacity:.65}50%{opacity:1}}@keyframes blink{0%,100%{opacity:.35}50%{opacity:1}}</style></defs>
  <rect width="580" height="300" rx="24" fill="url(#bg)"/><rect x="1" y="1" width="578" height="298" rx="23" fill="none" stroke="#314B72"/><ellipse cx="180" cy="110" rx="230" ry="150" fill="url(#glow)"/><ellipse cx="420" cy="214" rx="210" ry="120" fill="url(#glow2)"/>
  <g opacity=".08"><path d="M0 236C82 220 108 250 182 240s124-20 200-14 122 14 198-6" fill="none" stroke="#8B5CF6" stroke-width="1.4"/><path d="M0 252c82-16 110 8 182 0s124-18 200-12 122 14 198-6" fill="none" stroke="#22D3EE" stroke-width="1.2"/></g>
  <text x="28" y="37" class="m" font-size="13" letter-spacing="2.4" fill="#AC95FF">PRIMARY SYSTEM / 01</text><circle cx="536" cy="33" r="5.3" fill="#22D3EE"><animate attributeName="opacity" values=".35;1;.35" dur="2s" repeatCount="indefinite"/></circle><text x="28" y="90" class="t" font-size="40" font-weight="800" fill="#F4F7FF">Aura Work</text><text x="28" y="119" class="t" font-size="15" fill="#C6B9FF">Secure desktop AI agent infrastructure</text><text x="28" y="160" class="t" font-size="13.4" fill="#B6C2DA">Local-first · Multi-provider · Permission-gated</text><text x="28" y="183" class="t" font-size="13.4" fill="#B6C2DA">Open source · Arabic/English · Developer tooling</text>
  <g transform="translate(28 228)"><rect width="96" height="34" rx="17" fill="#16152E" stroke="#7257D9"/><text x="48" y="22" class="m" font-size="12" fill="#E3DAFF" text-anchor="middle">OPEN SOURCE</text><g transform="translate(114)"><rect width="95" height="34" rx="17" fill="#081B25" stroke="#0C7E96"/><text x="47.5" y="22" class="m" font-size="12" fill="#71F0FF" text-anchor="middle">ACTIVE ALPHA</text></g></g><text x="516" y="264" class="m" font-size="12" fill="#7C8CAC" text-anchor="end">OPEN REPOSITORY</text>
  <g transform="translate(452 149)"><circle r="58" fill="#0B1221" stroke="#6F49E9" stroke-width="2.2"/><circle r="41" fill="none" stroke="#273859"/><path d="M0-41V-21M41 0H21M0 41V21M-41 0H-21M29-29 15-15M29 29 15 15M-29 29-15 15M-29-29-15-15" stroke="#7F63F2" stroke-width="1.7" stroke-linecap="round"/><circle cy="-41" r="4" fill="#8B5CF6"/><circle cx="41" r="4" fill="#22D3EE"/><circle cy="41" r="4" fill="#A78BFA"/><circle cx="-41" r="4" fill="#22D3EE"/><circle r="14" fill="#091421" stroke="#22D3EE" stroke-width="3"/><circle r="3.8" fill="#22D3EE" class="blink"/></g>
  <g transform="translate(360 44)"><rect width="154" height="92" rx="14" fill="#08111F" fill-opacity=".82" stroke="#30476C"/><text x="16" y="24" class="m" font-size="12" letter-spacing="1.6" fill="#7E8FB2">CORE STATUS</text><text x="16" y="46" class="t" font-size="12" fill="#CCD7EE">Isolation</text><rect x="82" y="38" width="56" height="8" rx="4" fill="#182235"/><rect x="82" y="38" width="44" height="8" rx="4" fill="url(#edge)" class="bar"/><text x="16" y="64" class="t" font-size="12" fill="#CCD7EE">Routing</text><rect x="82" y="56" width="56" height="8" rx="4" fill="#182235"/><rect x="82" y="56" width="48" height="8" rx="4" fill="url(#edge)" class="bar"/><text x="16" y="82" class="t" font-size="12" fill="#CCD7EE">Approval</text><rect x="82" y="74" width="56" height="8" rx="4" fill="#182235"/><rect x="82" y="74" width="38" height="8" rx="4" fill="url(#edge)" class="bar"/></g>
</svg>