<svg xmlns="http://www.w3.org/2000/svg" width="1200" height="330" viewBox="0 0 1200 330" role="img" aria-labelledby="title desc">
  <title id="title">HBX1 Capability Network</title><desc id="desc">Cybersecurity, AI systems, product engineering and connected worlds capability network.</desc>
  <defs><linearGradient id="bg" x1="0" y1="0" x2="1" y2="1"><stop stop-color="#040A14"/><stop offset=".48" stop-color="#050C18"/><stop offset="1" stop-color="#07101E"/></linearGradient><linearGradient id="line" x1="0" y1="0" x2="1" y2="0"><stop stop-color="#8B5CF6"/><stop offset=".5" stop-color="#22D3EE"/><stop offset="1" stop-color="#A855F7"/></linearGradient><style>.t{font-family:Inter,Segoe UI,Arial,sans-serif}.m{font-family:"JetBrains Mono",monospace}</style></defs>
  <rect width="1200" height="330" rx="24" fill="url(#bg)"/><rect x="1" y="1" width="1198" height="328" rx="23" fill="none" stroke="#243553"/><text x="38" y="42" class="m" font-size="14" letter-spacing="3" fill="#8B9BB9">CAPABILITY NETWORK</text><text x="1008" y="42" class="m" font-size="13" fill="#7083A8">SIGNAL ROUTING / ACTIVE</text>
  <path d="M165 170H1035" stroke="#2E3D5E" stroke-width="4"/><path d="M165 170H1035" stroke="url(#line)" stroke-width="2" stroke-dasharray="14 18"><animate attributeName="stroke-dashoffset" values="0;-64" dur="3s" repeatCount="indefinite"/></path>
  <g transform="translate(92 112)"><circle cx="73" cy="58" r="56" fill="#0B1221" stroke="#7C4DFF" stroke-width="2.4"/><circle cx="73" cy="58" r="43" fill="none" stroke="#27324B"/><path d="M73 24l30 18v34l-30 18-30-18V42z" fill="none" stroke="#8B5CF6" stroke-opacity=".35"/><rect x="61" y="46" width="24" height="24" fill="none" stroke="#A78BFA" stroke-width="3"/><path d="M66 36v10M80 36v10M66 80v10M80 80v10M51 51h10M51 65h10M85 51h10M85 65h10" stroke="#A78BFA" stroke-width="2.4" stroke-linecap="round"/><text x="0" y="145" class="t" font-size="17" font-weight="700" fill="#F3F7FF">CYBERSECURITY</text><text x="0" y="167" class="t" font-size="13" fill="#8191B2">DEFEND · REVIEW · HARDEN</text></g>
  <g transform="translate(381 112)"><circle cx="73" cy="58" r="56" fill="#0B1221" stroke="#22D3EE" stroke-width="2.4"/><circle cx="73" cy="58" r="43" fill="none" stroke="#27324B"/><path d="M73 24l30 18v34l-30 18-30-18V42z" fill="none" stroke="#22D3EE" stroke-opacity=".3"/><circle cx="73" cy="58" r="10" fill="none" stroke="#22D3EE" stroke-width="3"/><circle cx="52" cy="40" r="5" fill="#22D3EE"/><circle cx="94" cy="46" r="5" fill="#22D3EE"/><circle cx="53" cy="80" r="5" fill="#22D3EE"/><circle cx="96" cy="76" r="5" fill="#22D3EE"/><path d="M58 44l11 9M78 51l11-3M59 76l9-11M79 64l11 9" stroke="#22D3EE" stroke-width="2.2"/><text x="18" y="145" class="t" font-size="17" font-weight="700" fill="#F3F7FF">AI SYSTEMS</text><text x="0" y="167" class="t" font-size="13" fill="#8191B2">AGENTS · ROUTING · TOOLS</text></g>
  <g transform="translate(671 112)"><circle cx="73" cy="58" r="56" fill="#0B1221" stroke="#C084FC" stroke-width="2.4"/><circle cx="73" cy="58" r="43" fill="none" stroke="#27324B"/><path d="M73 24l30 18v34l-30 18-30-18V42z" fill="none" stroke="#C084FC" stroke-opacity=".3"/><rect x="50" y="38" width="46" height="40" fill="none" stroke="#C084FC" stroke-width="3"/><path d="M58 49h30M58 59h22M58 69h28" stroke="#C084FC" stroke-width="2.6" stroke-linecap="round"/><text x="-29" y="145" class="t" font-size="17" font-weight="700" fill="#F3F7FF">PRODUCT ENGINEERING</text><text x="-2" y="167" class="t" font-size="13" fill="#8191B2">WEB · DESKTOP · BACKEND</text></g>
  <g transform="translate(962 112)"><circle cx="73" cy="58" r="56" fill="#0B1221" stroke="#9F7AEA" stroke-width="2.4"/><circle cx="73" cy="58" r="43" fill="none" stroke="#27324B"/><path d="M73 24l30 18v34l-30 18-30-18V42z" fill="none" stroke="#22D3EE" stroke-opacity=".25"/><path d="M73 34l24 14v28l-24 14-24-14V48zM73 34v56M49 48l24 14 24-14" fill="none" stroke="#A78BFA" stroke-width="2.6"/><text x="-19" y="145" class="t" font-size="17" font-weight="700" fill="#F3F7FF">CONNECTED WORLDS</text><text x="0" y="167" class="t" font-size="13" fill="#8191B2">DISCORD · VRCHAT · UNITY</text></g>
  <circle cx="165" cy="170" r="5" fill="#22D3EE"><animate attributeName="cx" values="165;455;745;1035" dur="4s" repeatCount="indefinite"/></circle>
</svg>