<svg xmlns="http://www.w3.org/2000/svg" width="1200" height="330" viewBox="0 0 1200 330" role="img" aria-labelledby="title desc">
  <title id="title">HBX1 capability network</title>
  <desc id="desc">A capability network linking cybersecurity, artificial intelligence, product engineering and virtual worlds.</desc>
  <defs>
    <linearGradient id="bg" x1="0" y1="0" x2="1" y2="1"><stop stop-color="#080B14"/><stop offset="1" stop-color="#0B1020"/></linearGradient>
    <linearGradient id="flow" x1="0" y1="0" x2="1" y2="0"><stop stop-color="#8B5CF6"/><stop offset=".5" stop-color="#22D3EE"/><stop offset="1" stop-color="#C084FC"/></linearGradient>
    <filter id="g" x="-80%" y="-80%" width="260%" height="260%"><feGaussianBlur stdDeviation="4" result="b"/><feMerge><feMergeNode in="b"/><feMergeNode in="SourceGraphic"/></feMerge></filter>
  </defs>
  <rect width="1200" height="330" rx="24" fill="url(#bg)"/>
  <rect x="1" y="1" width="1198" height="328" rx="23" fill="none" stroke="#30394B"/>
  <text x="38" y="45" fill="#64748B" font-family="ui-monospace, SFMono-Regular, Menlo, Consolas, monospace" font-size="14" letter-spacing="3">CAPABILITY NETWORK</text>
  <text x="1162" y="45" text-anchor="end" fill="#475569" font-family="ui-monospace, SFMono-Regular, Menlo, Consolas, monospace" font-size="12">SIGNAL ROUTING / ACTIVE</text>

  <path d="M165 172H1035" stroke="#273246" stroke-width="4"/>
  <path d="M165 172H1035" stroke="url(#flow)" stroke-width="2" stroke-dasharray="14 18">
    <animate attributeName="stroke-dashoffset" values="0;-64" dur="2.8s" repeatCount="indefinite"/>
  </path>

  <g transform="translate(165 172)">
    <circle r="58" fill="#0F172A" stroke="#8B5CF6" stroke-width="2"/>
    <circle r="42" fill="none" stroke="#8B5CF6" stroke-opacity=".22"/>
    <path d="M-14-10h28v24h-28zM-6-18v8M6-18v8M-6 14v8M6 14v8M-22-3h8M-22 7h8M14-3h8M14 7h8" fill="none" stroke="#C084FC" stroke-width="3"/>
    <text y="88" text-anchor="middle" fill="#F8FAFC" font-family="Arial, Helvetica, sans-serif" font-size="17" font-weight="700">CYBERSECURITY</text>
    <text y="110" text-anchor="middle" fill="#64748B" font-family="ui-monospace, SFMono-Regular, Menlo, Consolas, monospace" font-size="11">DEFEND · REVIEW · HARDEN</text>
  </g>

  <g transform="translate(455 172)">
    <circle r="58" fill="#0F172A" stroke="#22D3EE" stroke-width="2"/>
    <circle r="42" fill="none" stroke="#22D3EE" stroke-opacity=".22"/>
    <circle r="10" fill="none" stroke="#22D3EE" stroke-width="3"/>
    <circle cx="-22" cy="-18" r="5" fill="#22D3EE"/>
    <circle cx="24" cy="-12" r="5" fill="#22D3EE"/>
    <circle cx="-20" cy="23" r="5" fill="#22D3EE"/>
    <circle cx="23" cy="23" r="5" fill="#22D3EE"/>
    <path d="M-17-14L-7-6M18-9L8-4M-16 18L-7 7M18 18L8 7" stroke="#22D3EE" stroke-width="2"/>
    <text y="88" text-anchor="middle" fill="#F8FAFC" font-family="Arial, Helvetica, sans-serif" font-size="17" font-weight="700">AI SYSTEMS</text>
    <text y="110" text-anchor="middle" fill="#64748B" font-family="ui-monospace, SFMono-Regular, Menlo, Consolas, monospace" font-size="11">AGENTS · ROUTING · TOOLS</text>
  </g>

  <g transform="translate(745 172)">
    <circle r="58" fill="#0F172A" stroke="#C084FC" stroke-width="2"/>
    <circle r="42" fill="none" stroke="#C084FC" stroke-opacity=".22"/>
    <path d="M-23-18h46v36h-46zM-15-8h30M-15 1h20M-15 10h25" fill="none" stroke="#C084FC" stroke-width="3"/>
    <text y="88" text-anchor="middle" fill="#F8FAFC" font-family="Arial, Helvetica, sans-serif" font-size="17" font-weight="700">PRODUCT ENGINEERING</text>
    <text y="110" text-anchor="middle" fill="#64748B" font-family="ui-monospace, SFMono-Regular, Menlo, Consolas, monospace" font-size="11">WEB · DESKTOP · BACKEND</text>
  </g>

  <g transform="translate(1035 172)">
    <circle r="58" fill="#0F172A" stroke="#8B5CF6" stroke-width="2"/>
    <circle r="42" fill="none" stroke="#8B5CF6" stroke-opacity=".22"/>
    <path d="M-25-10l25-14 25 14v27L0 31l-25-14zM0-24v55M-25-10L0 4l25-14" fill="none" stroke="#A78BFA" stroke-width="3"/>
    <text y="88" text-anchor="middle" fill="#F8FAFC" font-family="Arial, Helvetica, sans-serif" font-size="17" font-weight="700">CONNECTED WORLDS</text>
    <text y="110" text-anchor="middle" fill="#64748B" font-family="ui-monospace, SFMono-Regular, Menlo, Consolas, monospace" font-size="11">DISCORD · VRCHAT · UNITY</text>
  </g>

  <circle cx="310" cy="172" r="4" fill="#22D3EE" filter="url(#g)"><animate attributeName="cx" values="165;1035" dur="4s" repeatCount="indefinite"/></circle>
</svg>