<svg xmlns="http://www.w3.org/2000/svg" width="1200" height="430" viewBox="0 0 1200 430" role="img" aria-labelledby="title desc">
  <title id="title">HBX1 Command Center</title>
  <desc id="desc">Premium command center banner for Habib HBX1.</desc>
  <defs>
    <linearGradient id="bg" x1="0" y1="0" x2="1" y2="1"><stop offset="0" stop-color="#050816"/><stop offset="0.46" stop-color="#0B1328"/><stop offset="1" stop-color="#02040B"/></linearGradient>
    <radialGradient id="violetGlow" cx="0.24" cy="0.35" r="0.74"><stop offset="0" stop-color="#8B5CF6" stop-opacity="0.34"/><stop offset="1" stop-color="#8B5CF6" stop-opacity="0"/></radialGradient>
    <radialGradient id="cyanGlow" cx="0.76" cy="0.72" r="0.7"><stop offset="0" stop-color="#22D3EE" stop-opacity="0.26"/><stop offset="1" stop-color="#22D3EE" stop-opacity="0"/></radialGradient>
    <linearGradient id="edge" x1="0" y1="0" x2="1" y2="0"><stop offset="0" stop-color="#33425F"/><stop offset="0.48" stop-color="#7C3AED"/><stop offset="1" stop-color="#22D3EE"/></linearGradient>
    <linearGradient id="tag" x1="0" y1="0" x2="1" y2="0"><stop offset="0" stop-color="#121B30"/><stop offset="1" stop-color="#0B1322"/></linearGradient>
    <pattern id="grid" width="28" height="28" patternUnits="userSpaceOnUse"><path d="M28 0H0V28" fill="none" stroke="#88A0D8" stroke-opacity="0.08"/></pattern>
    <style>.t{font-family:Inter,Segoe UI,Arial,sans-serif}.mono{font-family:"JetBrains Mono","Fira Code",monospace}.muted{fill:#7E8DAE}.bright{fill:#EAF2FF}.line{fill:none;stroke:url(#edge);stroke-width:2.2;stroke-linecap:round}.dash{fill:none;stroke:#22D3EE;stroke-opacity:.18;stroke-width:1;stroke-dasharray:5 12}.scan{animation:scan 8s linear infinite}.trace1{animation:trace1 9s ease-in-out infinite}.trace2{animation:trace2 10s ease-in-out infinite}.trace3{animation:trace3 11s ease-in-out infinite}@keyframes scan{0%{transform:translateX(-1300px)}100%{transform:translateX(1300px)}}@keyframes trace1{0%,100%{stroke-opacity:.35}50%{stroke-opacity:.9}}@keyframes trace2{0%,100%{stroke-opacity:.12}50%{stroke-opacity:.45}}@keyframes trace3{0%,100%{stroke-opacity:.08}50%{stroke-opacity:.3}}</style>
  </defs>
  <rect width="1200" height="430" rx="24" fill="url(#bg)"/><rect x="1" y="1" width="1198" height="428" rx="23" fill="none" stroke="#243553" stroke-width="1.6"/><rect width="1200" height="430" rx="24" fill="url(#grid)"/>
  <ellipse cx="290" cy="155" rx="285" ry="180" fill="url(#violetGlow)"/><ellipse cx="810" cy="300" rx="360" ry="180" fill="url(#cyanGlow)"/>
  <g opacity=".84"><path class="line trace1" d="M16 352C170 320 262 404 414 382S665 330 811 302s221-22 373 24"/><path class="dash trace2" d="M16 372C160 336 258 415 394 398s256-34 422-78 229-18 368 24"/><path class="dash trace3" d="M16 332C174 296 294 374 432 356s256-51 409-80 197-8 343 34"/></g>
  <rect x="30" y="20" width="1140" height="390" rx="20" fill="none" stroke="#253755" stroke-width="1.2"/><path d="M31 74H1160" stroke="#385072"/><circle cx="51" cy="49" r="5.5" fill="#22D3EE"><animate attributeName="opacity" values=".35;1;.35" dur="2s" repeatCount="indefinite"/></circle>
  <text x="67" y="55" class="mono" font-size="14" letter-spacing="2.4" fill="#A8B6D7">NOVIR // COMMAND CENTER</text><text x="1015" y="55" class="mono" font-size="14" letter-spacing="1.2" fill="#7E8DAE">SAUDI ARABIA / ONLINE</text>
  <path d="M1147 31h21v21M31 377v21h21M1168 377v21h-21" fill="none" stroke="#7181A7" stroke-width="2"/>
  <g transform="translate(48 125)"><text y="14" class="mono muted" font-size="13" letter-spacing="5">OPERATOR</text><text y="96" class="t bright" font-size="74" font-weight="800">HABIB</text><text x="2" y="142" class="mono" font-size="31" font-weight="700" letter-spacing="6" fill="#A78BFA">HBX1</text><path d="M0 170H474" stroke="url(#edge)" stroke-width="2.2"/><text y="208" class="t bright" font-size="20">Cybersecurity Developer · AI Systems Builder</text><text y="238" class="t muted" font-size="17">Founder of NOVIR Studio · Security-first product systems</text><g transform="translate(0 274)"><rect width="252" height="38" rx="19" fill="url(#tag)" stroke="#345078"/><circle cx="21" cy="19" r="5" fill="#22D3EE"><animate attributeName="opacity" values=".35;1;.35" dur="2.4s" repeatCount="indefinite"/></circle><text x="37" y="24" class="mono" font-size="14" fill="#DDE8FF">BUILDING REAL SYSTEMS</text></g></g>
  <g transform="translate(594 96)"><path d="M0 0V262" stroke="#365076"/><circle cy="23" r="3" fill="#A78BFA"/><circle cy="263" r="3.4" fill="#22D3EE"/></g>
  <g transform="translate(632 120)" class="t"><text y="12" class="mono muted" font-size="14" letter-spacing="4">ACTIVE DOMAINS</text>
    <g><rect y="40" width="504" height="58" rx="14" fill="#0A1224" fill-opacity=".88" stroke="#314A71"/><rect y="40" width="4" height="58" rx="2" fill="#8B5CF6"/><text x="25" y="64" font-size="15" fill="#F5F7FF" font-weight="700">SECURITY ENGINEERING</text><text x="25" y="84" font-size="12" letter-spacing="1" fill="#7F90B6">THREAT MODELING · HARDENING · SAFE AUTOMATION</text><text x="479" y="77" class="mono" font-size="18" fill="#B692FF" text-anchor="end">01</text><rect x="362" y="50" width="118" height="12" rx="6" fill="#141C2F"/><rect x="362" y="50" width="88" height="12" rx="6" fill="url(#edge)"><animate attributeName="width" values="64;102;88;64" dur="5s" repeatCount="indefinite"/></rect></g>
    <g><rect y="111" width="504" height="58" rx="14" fill="#0A1224" fill-opacity=".88" stroke="#314A71"/><rect y="111" width="4" height="58" rx="2" fill="#22D3EE"/><text x="25" y="135" font-size="15" fill="#F5F7FF" font-weight="700">AI AGENT SYSTEMS</text><text x="25" y="155" font-size="12" letter-spacing="1" fill="#7F90B6">LOCAL-FIRST · MULTI-PROVIDER · PERMISSION-GATED</text><text x="479" y="148" class="mono" font-size="18" fill="#58E7FF" text-anchor="end">02</text><rect x="362" y="121" width="118" height="12" rx="6" fill="#141C2F"/><rect x="362" y="121" width="92" height="12" rx="6" fill="url(#edge)"><animate attributeName="width" values="90;76;102;90" dur="4.4s" repeatCount="indefinite"/></rect></g>
    <g><rect y="182" width="504" height="58" rx="14" fill="#0A1224" fill-opacity=".88" stroke="#314A71"/><rect y="182" width="4" height="58" rx="2" fill="#A78BFA"/><text x="25" y="206" font-size="15" fill="#F5F7FF" font-weight="700">CONNECTED PLATFORMS</text><text x="25" y="226" font-size="12" letter-spacing="1" fill="#7F90B6">WEB · DISCORD · VRCHAT · DESKTOP · OPEN SOURCE</text><text x="479" y="219" class="mono" font-size="18" fill="#C5A6FF" text-anchor="end">03</text><rect x="362" y="192" width="118" height="12" rx="6" fill="#141C2F"/><rect x="362" y="192" width="84" height="12" rx="6" fill="url(#edge)"><animate attributeName="width" values="82;94;72;82" dur="5.6s" repeatCount="indefinite"/></rect></g>
  </g><rect width="180" height="430" fill="url(#violetGlow)" opacity=".18" class="scan"/>
</svg>