<svg xmlns="http://www.w3.org/2000/svg" width="580" height="300" viewBox="0 0 580 300" role="img" aria-labelledby="title desc">
  <title id="title">NovirLink</title><desc id="desc">Discord and VRChat operations platform.</desc>
  <defs><linearGradient id="bg" x1="0" y1="0" x2="1" y2="1"><stop stop-color="#081A22"/><stop offset=".56" stop-color="#0A1325"/><stop offset="1" stop-color="#171128"/></linearGradient><radialGradient id="g1" cx=".26" cy=".26" r=".8"><stop offset="0" stop-color="#22D3EE" stop-opacity=".2"/><stop offset="1" stop-color="#22D3EE" stop-opacity="0"/></radialGradient><radialGradient id="g2" cx=".82" cy=".78" r=".7"><stop offset="0" stop-color="#8B5CF6" stop-opacity=".25"/><stop offset="1" stop-color="#8B5CF6" stop-opacity="0"/></radialGradient><style>.t{font-family:Inter,Segoe UI,Arial,sans-serif}.m{font-family:"JetBrains Mono",monospace}.dash{animation:dash 4.5s linear infinite}.blink{animation:blink 2.3s ease-in-out infinite}@keyframes dash{0%{stroke-dashoffset:90}100%{stroke-dashoffset:0}}@keyframes blink{0%,100%{opacity:.42}50%{opacity:1}}</style></defs>
  <rect width="580" height="300" rx="24" fill="url(#bg)"/><rect x="1" y="1" width="578" height="298" rx="23" fill="none" stroke="#315071"/><ellipse cx="174" cy="108" rx="220" ry="150" fill="url(#g1)"/><ellipse cx="456" cy="220" rx="180" ry="120" fill="url(#g2)"/>
  <text x="28" y="37" class="m" font-size="13" letter-spacing="2.4" fill="#58E7FF">CONNECTED PLATFORM / 02</text><circle cx="535" cy="33" r="5.3" fill="#C084FC"><animate attributeName="opacity" values=".35;1;.35" dur="2.2s" repeatCount="indefinite"/></circle><text x="28" y="90" class="t" font-size="40" font-weight="800" fill="#F4F7FF">NovirLink</text><text x="28" y="119" class="t" font-size="15" fill="#65E8FF">Discord × VRChat operations platform</text><text x="28" y="160" class="t" font-size="13.4" fill="#B7C6DC">Allowlists · Moderation · Appeals · Dashboards</text><text x="28" y="183" class="t" font-size="13.4" fill="#B7C6DC">Udon integrations · Group management · Automation</text>
  <g transform="translate(28 228)"><rect width="114" height="34" rx="17" fill="#071A22" stroke="#0F7D95"/><text x="57" y="22" class="m" font-size="12" fill="#72F0FF" text-anchor="middle">PRODUCTION</text><g transform="translate(125)"><rect width="110" height="34" rx="17" fill="#18122D" stroke="#6C48D8"/><text x="55" y="22" class="m" font-size="12" fill="#D6C1FF" text-anchor="middle">VRCHAT STACK</text></g></g><text x="520" y="264" class="m" font-size="12" fill="#7C8CAC" text-anchor="end">OPEN PLATFORM</text>
  <g transform="translate(430 149)"><g transform="translate(-42)"><rect y="-29" width="58" height="58" rx="15" fill="#081624" stroke="#22D3EE" stroke-width="2.2"/><circle cx="29" cy="20" r="11" fill="none" stroke="#22D3EE" stroke-width="3"/><path d="M18 45c2-8 20-8 22 0" fill="none" stroke="#22D3EE" stroke-width="3" stroke-linecap="round"/></g><g transform="translate(73 29)"><rect y="-29" width="58" height="58" rx="15" fill="#15132B" stroke="#8B5CF6" stroke-width="2.2"/><rect x="14" y="6" width="30" height="24" rx="3" fill="none" stroke="#A78BFA" stroke-width="3"/><path d="M20 6V-1M38 6V-1M22 18h14" stroke="#A78BFA" stroke-width="3" stroke-linecap="round"/></g><path d="M32 0C62 0 70 29 102 29" fill="none" stroke="#93A0BD" stroke-width="3" stroke-dasharray="7 8" class="dash"/><circle cx="63" r="5" fill="#22D3EE" class="blink"/><g transform="translate(61 14)"><circle r="46" fill="none" stroke="#3A4260" stroke-dasharray="6 7"/><circle r="31" fill="none" stroke="#293855" stroke-dasharray="3 8"/></g></g>
</svg>