<svg width="1200" height="320" viewBox="0 0 1200 320" fill="none" xmlns="http://www.w3.org/2000/svg">
  <defs>
    <linearGradient id="bg" x1="0" y1="0" x2="1200" y2="320" gradientUnits="userSpaceOnUse">
      <stop stop-color="#070B14"/>
      <stop offset="0.48" stop-color="#11152A"/>
      <stop offset="1" stop-color="#17102A"/>
    </linearGradient>
    <linearGradient id="accent" x1="300" y1="0" x2="900" y2="0" gradientUnits="userSpaceOnUse">
      <stop stop-color="#22D3EE"/>
      <stop offset="0.52" stop-color="#8B5CF6"/>
      <stop offset="1" stop-color="#C084FC"/>
    </linearGradient>
    <radialGradient id="glowA" cx="0" cy="0" r="1" gradientUnits="userSpaceOnUse" gradientTransform="translate(190 44) rotate(38) scale(330 220)">
      <stop stop-color="#22D3EE" stop-opacity="0.2"/>
      <stop offset="1" stop-color="#22D3EE" stop-opacity="0"/>
    </radialGradient>
    <radialGradient id="glowB" cx="0" cy="0" r="1" gradientUnits="userSpaceOnUse" gradientTransform="translate(1015 274) rotate(-145) scale(360 240)">
      <stop stop-color="#8B5CF6" stop-opacity="0.24"/>
      <stop offset="1" stop-color="#8B5CF6" stop-opacity="0"/>
    </radialGradient>
    <pattern id="grid" width="38" height="38" patternUnits="userSpaceOnUse">
      <path d="M 38 0 L 0 0 0 38" fill="none" stroke="#94A3B8" stroke-opacity="0.065" stroke-width="1"/>
    </pattern>
    <filter id="textGlow" x="-30%" y="-40%" width="160%" height="180%">
      <feGaussianBlur stdDeviation="7" result="blur"/>
      <feMerge>
        <feMergeNode in="blur"/>
        <feMergeNode in="SourceGraphic"/>
      </feMerge>
    </filter>
    <filter id="softGlow" x="-100%" y="-100%" width="300%" height="300%">
      <feGaussianBlur stdDeviation="9"/>
    </filter>
    <clipPath id="clip">
      <rect width="1200" height="320" rx="24"/>
    </clipPath>
  </defs>

  <g clip-path="url(#clip)">
    <rect width="1200" height="320" fill="url(#bg)"/>
    <rect width="1200" height="320" fill="url(#grid)"/>
    <rect width="1200" height="320" fill="url(#glowA)"/>
    <rect width="1200" height="320" fill="url(#glowB)"/>

    <circle cx="112" cy="82" r="74" stroke="#22D3EE" stroke-opacity="0.13"/>
    <circle cx="112" cy="82" r="50" stroke="#22D3EE" stroke-opacity="0.1"/>
    <circle cx="1092" cy="242" r="96" stroke="#A78BFA" stroke-opacity="0.11"/>
    <circle cx="1092" cy="242" r="66" stroke="#A78BFA" stroke-opacity="0.08"/>

    <path d="M0 271C176 234 311 306 493 270C690 231 822 288 1200 216" stroke="url(#accent)" stroke-opacity="0.22" stroke-width="2"/>
    <path d="M0 284C194 247 333 316 510 283C706 247 875 296 1200 238" stroke="#FFFFFF" stroke-opacity="0.045"/>

    <g transform="translate(600 55)">
      <path d="M0 0L38 14V48C38 75 21 94 0 104C-21 94-38 75-38 48V14L0 0Z" stroke="url(#accent)" stroke-width="2.5" fill="#0B1020" fill-opacity="0.72"/>
      <path d="M-15 49L-5 59L17 35" stroke="#22D3EE" stroke-width="4" stroke-linecap="round" stroke-linejoin="round"/>
      <circle cx="0" cy="52" r="46" stroke="#8B5CF6" stroke-opacity="0.12" stroke-width="10" filter="url(#softGlow)"/>
    </g>

    <text x="600" y="206" text-anchor="middle" fill="#F8FAFC" font-family="Inter, Segoe UI, Arial, sans-serif" font-size="56" font-weight="800" letter-spacing="5" filter="url(#textGlow)">HABIB · HBX1</text>
    <rect x="355" y="224" width="490" height="2" rx="1" fill="url(#accent)" opacity="0.85"/>
    <text x="600" y="258" text-anchor="middle" fill="#CBD5E1" font-family="JetBrains Mono, Consolas, monospace" font-size="17" font-weight="500" letter-spacing="2.2">CYBERSECURITY  /  AI SYSTEMS  /  FULL-STACK  /  VR</text>
    <text x="600" y="291" text-anchor="middle" fill="#94A3B8" font-family="Inter, Segoe UI, Arial, sans-serif" font-size="14" letter-spacing="1.4">FOUNDER OF NOVIR STUDIO · SAUDI ARABIA</text>
  </g>
</svg>
